<svg width="266" height="42" xmlns="http://www.w3.org/2000/svg"><g fill="none"><path d="M18.439 12.607a1.259 1.259 0 0 1-.207-.13.884.884 0 0 1-.207-.23 3.464 3.464 0 0 1-.232-.26 4.175 4.175 0 0 0-.284-.31c-.105-.069-.217-.147-.336-.232a2.597 2.597 0 0 1-.336-.285 4.642 4.642 0 0 1-.413-.233 3.117 3.117 0 0 0-.465-.231 4.028 4.028 0 0 0-1.215-.361 10.758 10.758 0 0 0-1.577-.105c-1.342 0-2.52.242-3.536.724a6.733 6.733 0 0 0-2.557 2.12 10.49 10.49 0 0 0-1.55 2.946 10.053 10.053 0 0 0-.513 3.201v.148a7.709 7.709 0 0 0 .536 2.884 9.564 9.564 0 0 0 1.577 2.607 6.42 6.42 0 0 0 2.557 1.86 9.146 9.146 0 0 0 3.486.618c1.414 0 2.593-.162 3.537-.487.944-.326 1.66-.817 2.146-1.474.52-.762.962-1.575 1.317-2.427a23.41 23.41 0 0 0 1.058-3.154v-.05l.052-.053v-.052l4.498.254v.181a.168.168 0 0 0 .053.128v.442a.174.174 0 0 0 .05.129v.257c0 .286-.017.57-.05.854-.037.303-.09.605-.156.903-.034.14-.077.295-.129.466-.051.17-.095.328-.13.465-.069.173-.128.338-.18.491-.054.153-.113.318-.182.49-.443.91-.999 1.761-1.653 2.533a13.733 13.733 0 0 1-2.53 2.325 10.16 10.16 0 0 1-3.39 1.621c-1.407.378-2.859.56-4.315.544a14.616 14.616 0 0 1-5.058-.85 12.145 12.145 0 0 1-4.185-2.61 11.728 11.728 0 0 1-2.841-4.057 12.912 12.912 0 0 1-.932-4.986c0-1.93.259-3.635.776-5.115a10.295 10.295 0 0 1 2.32-3.824c.969-1.015 2.065-1.9 3.26-2.635a12.946 12.946 0 0 1 3.565-1.499c.137-.034.267-.059.388-.076.13-.02.26-.046.387-.079.13.001.26-.007.388-.025.13-.017.26-.042.388-.073.275-.034.542-.06.8-.078.258-.02.508-.025.748-.025 1.34-.013 2.675.186 3.953.59 1.224.394 2.37.996 3.39 1.78.99.786 1.898 1.668 2.71 2.636.81.963 1.528 1.999 2.145 3.094L8.27 23.142 6.245 19.53l12.194-6.924zm16.275-6.51v15.031c-.016.87.124 1.736.413 2.557.274.74.696 1.416 1.24 1.988.566.54 1.233.963 1.964 1.242a6.926 6.926 0 0 0 2.48.412 5.48 5.48 0 0 0 2.016-.359c.62-.24 1.17-.63 1.602-1.134a8.08 8.08 0 0 0 1.187-1.629 6.817 6.817 0 0 0 .748-2.168c.016-.117.044-.252.08-.39v-.206c0-.072.017-.143.05-.207V6.097h4.495V20.72c.003.04.022.076.052.102v.414a11.397 11.397 0 0 1-.697 4.03 10.705 10.705 0 0 1-2.093 3.41 8.721 8.721 0 0 1-3.256 2.3 11.132 11.132 0 0 1-4.184.75 13.004 13.004 0 0 1-4.186-.647 10.142 10.142 0 0 1-3.41-1.937c-1-.896-1.75-2.067-2.247-3.515-.497-1.447-.747-3.186-.749-5.218V6.097h4.495zm25.627 0v2.428a.513.513 0 0 0 .182-.154 2.21 2.21 0 0 1 .231-.258c.075-.112.161-.216.257-.311l.31-.31c.282-.28.584-.54.904-.775a6.75 6.75 0 0 1 1.164-.675 6.47 6.47 0 0 1 1.396-.49 7.243 7.243 0 0 1 1.653-.182l1.654-.103v4.495H66.85a9.172 9.172 0 0 0-2.479.776 6.042 6.042 0 0 0-1.757 1.291 8.192 8.192 0 0 0-1.11 1.621 9.738 9.738 0 0 0-.698 1.732 9.955 9.955 0 0 0-.31 1.29c-.068.394-.103.792-.104 1.19-.035.413-.052.775-.052 1.085V30.89h-4.488V6.097h4.488z" fill="#001722"/><path d="M98.987 18.291c0-1.79.233-3.384.699-4.78a9.7 9.7 0 0 1 2.091-3.59 15.426 15.426 0 0 1 2.92-2.48 12.8 12.8 0 0 1 3.23-1.5c.305-.1.615-.187.93-.257a8.93 8.93 0 0 1 .93-.147c.172-.036.327-.06.465-.078.154-.019.31-.027.464-.026a1.83 1.83 0 0 1 .443-.053h.442c1.826 0 3.428.216 4.805.647a9.054 9.054 0 0 1 3.508 1.981c.891.82 1.696 1.729 2.402 2.713a11.3 11.3 0 0 1 1.525 2.971c.137.414.258.827.361 1.24.102.408.171.822.206 1.24.07.415.121.802.157 1.163.032.362.051.715.051 1.06a14.577 14.577 0 0 1-.208 2.325 7.715 7.715 0 0 1-.206 1.24c-.103.412-.224.825-.36 1.24a13.923 13.923 0 0 1-1.397 2.893 14.48 14.48 0 0 1-2.22 2.688 8.89 8.89 0 0 1-3.257 2.019 17.086 17.086 0 0 1-4.547.93c-.518 0-1.036-.035-1.55-.105a17.463 17.463 0 0 1-1.653-.308c-.551-.14-1.18-.33-1.887-.57a16.337 16.337 0 0 1-2.247-.979v-4.966c.517.31.99.567 1.422.774.431.206.818.379 1.161.517.345.138.682.258 1.01.363.327.101.644.188.955.256.17.035.352.07.542.105.195.034.392.051.59.051.186.037.377.054.567.052h.67a9.178 9.178 0 0 0 3.439-.59 5.516 5.516 0 0 0 2.4-1.833 9.408 9.408 0 0 0 1.422-2.766c.337-1.078.502-2.203.491-3.332a9.265 9.265 0 0 0-.647-3.537 7.221 7.221 0 0 0-1.936-2.713 9.579 9.579 0 0 0-2.688-1.705 7.592 7.592 0 0 0-2.887-.57c-.242 0-.484.017-.724.053-.26.038-.52.09-.775.154-.283.036-.56.106-.827.207a8.41 8.41 0 0 0-2.608 1.575 11.85 11.85 0 0 0-1.621 1.783 6.671 6.671 0 0 0-1.161 2.377 12.024 12.024 0 0 0-.388 3.204v22.677h-4.504V18.291z" fill="#000"/><path d="M148.228 16.638a6.055 6.055 0 0 0-.443-2.247 7.02 7.02 0 0 0-1.316-2.095c-.589-.687-1.416-1.204-2.481-1.548-1.065-.345-2.357-.518-3.876-.518-.25.001-.5.018-.747.052-.26.035-.544.084-.853.147a4.586 4.586 0 0 0-.93.208 5.422 5.422 0 0 0-.932.413 6.779 6.779 0 0 0-1.602 1.008c-.545.46-1.046.97-1.497 1.523a6.555 6.555 0 0 0-1.086 2.042 10.767 10.767 0 0 0-.516 2.764c0 1.376.19 2.572.568 3.59.354.978.939 1.856 1.705 2.56.749.626 1.574 1.155 2.455 1.575.84.395 1.739.648 2.661.749h.257a.417.417 0 0 0 .182.051h.698c.388.002.777-.024 1.162-.076a4.592 4.592 0 0 0 1.058-.286c.174-.068.338-.137.491-.206.153-.07.318-.137.49-.207.151-.11.307-.214.468-.31.169-.1.324-.221.463-.36.18-.109.345-.24.492-.39.155-.157.32-.305.49-.443.172-.172.346-.336.518-.492.172-.156.342-.318.514-.492v5.632a.519.519 0 0 1-.101.156v.053a12.174 12.174 0 0 1-2.685 1.337c-.577.156-1.165.268-1.759.336-.789.092-1.582.136-2.377.131h-.672a10.95 10.95 0 0 1-8.164-3.442c-1.13-1.196-2-2.612-2.557-4.16-.567-1.567-.851-3.332-.853-5.296a13.671 13.671 0 0 1 .827-4.805 12.856 12.856 0 0 1 2.481-4.08 10.272 10.272 0 0 1 4.081-2.795c1.62-.62 3.498-.93 5.633-.93 2.031 0 3.84.276 5.426.827 1.503.5 2.867 1.35 3.979 2.48a11.495 11.495 0 0 1 2.455 3.487c.528 1.196.8 2.49.8 3.798v14.52h-4.909l.002-14.261z" fill="#001722"/><path d="M156.751 18.291c0-1.79.233-3.384.699-4.78a9.666 9.666 0 0 1 2.094-3.59 15.413 15.413 0 0 1 2.918-2.48 12.8 12.8 0 0 1 3.229-1.5 9.51 9.51 0 0 1 .93-.257 8.99 8.99 0 0 1 .93-.147c.173-.036.327-.06.465-.078.154-.019.31-.027.464-.026.145-.035.294-.053.443-.053h.442c1.822 0 3.423.216 4.802.647a9.07 9.07 0 0 1 3.515 1.988c.891.818 1.696 1.725 2.402 2.706.65.91 1.163 1.911 1.523 2.971.138.414.259.827.36 1.24.104.408.174.822.21 1.24.068.415.117.802.147 1.163.036.352.054.706.053 1.06 0 .344-.016.714-.053 1.11-.037.397-.084.8-.147 1.215a7.724 7.724 0 0 1-.21 1.24c-.101.412-.222.825-.36 1.24a14.066 14.066 0 0 1-1.395 2.893 14.432 14.432 0 0 1-2.222 2.688 8.872 8.872 0 0 1-3.257 2.019 17.095 17.095 0 0 1-4.546.93c-.519 0-1.036-.035-1.55-.105a17.463 17.463 0 0 1-1.654-.308c-.551-.14-1.18-.33-1.885-.57a16.12 16.12 0 0 1-2.249-.982v-4.963c.518.31.99.567 1.423.774.433.206.816.381 1.16.517.346.136.682.258 1.009.363a10.415 10.415 0 0 0 1.497.36c.195.035.392.052.59.052.186.036.377.054.567.052h.673a9.175 9.175 0 0 0 3.437-.59 5.52 5.52 0 0 0 2.402-1.833 9.408 9.408 0 0 0 1.422-2.766c.336-1.079.5-2.203.49-3.332a9.239 9.239 0 0 0-.646-3.537 7.21 7.21 0 0 0-1.938-2.713 9.6 9.6 0 0 0-2.686-1.705 7.597 7.597 0 0 0-2.887-.57 4.97 4.97 0 0 0-.725.053 7.42 7.42 0 0 0-.776.154c-.282.036-.56.106-.826.207-.96.36-1.844.894-2.609 1.575a11.69 11.69 0 0 0-1.62 1.783 6.65 6.65 0 0 0-1.165 2.377 11.96 11.96 0 0 0-.389 3.204v22.677h-4.495l-.006-23.613zm49.242-1.653a6.058 6.058 0 0 0-.442-2.247 6.968 6.968 0 0 0-1.318-2.095c-.589-.687-1.415-1.204-2.478-1.548-1.063-.345-2.355-.518-3.875-.518-.251.001-.502.018-.751.052-.258.035-.542.084-.853.147a4.63 4.63 0 0 0-.93.208 5.497 5.497 0 0 0-.929.413 6.719 6.719 0 0 0-1.602 1.008c-.545.46-1.047.97-1.497 1.523a6.556 6.556 0 0 0-1.087 2.042 10.827 10.827 0 0 0-.518 2.764c0 1.376.19 2.572.57 3.59a6.437 6.437 0 0 0 1.706 2.56 11.576 11.576 0 0 0 2.453 1.575 8.4 8.4 0 0 0 2.662.749h.26c.054.031.116.049.179.051h.697c.389.002.777-.024 1.163-.076.363-.053.718-.15 1.058-.286.172-.068.337-.137.492-.206.155-.07.318-.137.49-.207a6.04 6.04 0 0 1 .465-.31c.17-.1.326-.221.466-.36.179-.11.344-.24.49-.39a5.81 5.81 0 0 1 .493-.443c.17-.172.343-.336.515-.492.173-.156.345-.318.516-.492v5.632a.548.548 0 0 1-.103.156v.053a12.338 12.338 0 0 1-2.685 1.341c-.577.156-1.164.269-1.758.336-.789.093-1.583.136-2.377.132h-.672a10.938 10.938 0 0 1-8.161-3.447 11.897 11.897 0 0 1-2.56-4.16c-.568-1.567-.852-3.332-.852-5.296a13.637 13.637 0 0 1 .827-4.805 12.821 12.821 0 0 1 2.48-4.08 10.276 10.276 0 0 1 4.084-2.795c1.616-.62 3.493-.93 5.63-.93 2.032 0 3.84.276 5.427.827a10.049 10.049 0 0 1 3.979 2.48 11.483 11.483 0 0 1 2.453 3.487c.528 1.196.8 2.49.799 3.798v14.52h-4.906V16.638zm13.019-10.541v2.428a.513.513 0 0 0 .18-.154c.072-.092.149-.178.232-.258.077-.112.164-.217.261-.311l.31-.31c.28-.28.583-.54.903-.775a6.679 6.679 0 0 1 1.161-.672c.445-.216.913-.38 1.396-.49a7.252 7.252 0 0 1 1.653-.182l1.654-.103v4.495h-1.24a9.15 9.15 0 0 0-2.48.776 6.058 6.058 0 0 0-1.755 1.291 8.263 8.263 0 0 0-1.113 1.621 9.726 9.726 0 0 0-.695 1.732 9.495 9.495 0 0 0-.311 1.29c-.069.394-.104.791-.105 1.19-.034.413-.051.775-.051 1.085v12.143h-4.495V6.097h4.495zM230.017 0h4.863v6.097h9.405v4.444h-9.405V23.15c-.003.432.031.864.103 1.29.067.372.172.736.311 1.087.137.343.442.59.904.748.46.16 1.11.232 1.938.232l5.735-.102v4.495h-6.387c-.019 0-.044.014-.078.05h-.362a8.236 8.236 0 0 1-3.048-.514 4.912 4.912 0 0 1-2.12-1.604 8.518 8.518 0 0 1-1.265-2.325 10.067 10.067 0 0 1-.542-2.584.497.497 0 0 1-.052-.233V0zm25.629 26.404c.052.06.127.097.206.102h.62a.442.442 0 0 0 .205.051h.628a8.24 8.24 0 0 0 1.162-.078c.364-.05.72-.146 1.06-.284.326-.088.603-.3.774-.59.184-.34.273-.723.258-1.11a2.241 2.241 0 0 0-.387-1.292 3.18 3.18 0 0 0-1.162-.983c-.575-.3-1.172-.56-1.784-.775-.67-.24-1.403-.482-2.195-.722a1.848 1.848 0 0 0-.31-.078 2.09 2.09 0 0 1-.309-.077c-.147-.034-.259-.06-.362-.078a2.115 2.115 0 0 1-.31-.078 21.615 21.615 0 0 1-.697-.208 21.472 21.472 0 0 1-.648-.205 14.057 14.057 0 0 1-2.97-1.084 13.633 13.633 0 0 1-2.357-1.5 5.641 5.641 0 0 1-1.474-2.04 6.761 6.761 0 0 1-.49-2.662c0-1.411.24-2.574.721-3.486a3.832 3.832 0 0 1 2.171-1.887 15.642 15.642 0 0 1 3.152-.856 22.783 22.783 0 0 1 3.721-.284l9.35-.103v4.03h-9.764c-.62.069-1.197.138-1.73.208-.5.06-.992.164-1.474.31a1.86 1.86 0 0 0-.981.618 1.66 1.66 0 0 0-.31 1.032c-.006.428.11.85.335 1.214.25.386.597.699 1.008.905.459.246.933.462 1.42.646.499.19 1.024.37 1.576.542l.49.105.443.101a.936.936 0 0 0 .465.103.99.99 0 0 0 .207.08.824.824 0 0 0 .206.025l.311.103c.103.036.206.07.308.103a.408.408 0 0 1 .156.025c.104 0 .205.038.285.105a.433.433 0 0 0 .13.025c1.327.44 2.621.976 3.872 1.602 1.067.553 1.894 1.121 2.482 1.705a5.641 5.641 0 0 1 1.316 2.093c.304.872.454 1.79.442 2.714-.035 1.135-.217 2.09-.544 2.865a4.4 4.4 0 0 1-1.37 1.836 7.59 7.59 0 0 1-1.782 1.085 7.906 7.906 0 0 1-1.988.567 4.626 4.626 0 0 1-.699.053h-.956a.945.945 0 0 0-.31.05h-1.601a.884.884 0 0 0-.285-.05h-10.77v-4.494l10.539.001z" fill="#C4122F"/><g transform="translate(67.044 4.274)"><path d="M29.278 11.526l-1.18-.24a13.764 13.764 0 0 0-1.12-2.703l.668-1a1.179 1.179 0 0 0-.147-1.427l-3.47-3.477a1.179 1.179 0 0 0-1.424-.147l-1 .666A13.558 13.558 0 0 0 18.9 2.076L18.664.897A1.179 1.179 0 0 0 17.546 0h-4.912a1.179 1.179 0 0 0-1.107.91l-.239 1.178c-.938.275-1.845.651-2.702 1.122l-1-.666a1.179 1.179 0 0 0-1.426.147L2.68 6.156c-.364.39-.42.974-.14 1.426l.668 1c-.47.86-.846 1.766-1.121 2.705l-1.18.239C.39 11.648.019 12.1 0 12.632v4.918c.019.531.39.984.908 1.105l1.179.238c.275.94.65 1.847 1.121 2.705L2.541 22.6a1.179 1.179 0 0 0 .138 1.424l3.481 3.478c.389.363.973.42 1.425.14l1-.665c.858.472 1.764.848 2.703 1.122l.24 1.179c.121.517.574.89 1.106.907h4.912c.532-.017.986-.39 1.108-.907l.236-1.18c.94-.273 1.847-.65 2.705-1.12l1 .664c.452.28 1.036.223 1.425-.14l3.477-3.478c.365-.387.425-.97.148-1.424l-.67-1.002c.47-.859.847-1.766 1.124-2.705l1.179-.238c.517-.12.89-.574.909-1.105v-4.918a1.179 1.179 0 0 0-.91-1.106zM15.093 25.955c-6 0-10.864-4.863-10.865-10.863 0-6 4.863-10.865 10.863-10.865 6-.001 10.864 4.862 10.865 10.862-.005 5.998-4.865 10.859-10.863 10.866z" fill="#001722"/><path d="M15.093 6.458a8.633 8.633 0 1 0 0 17.265 8.633 8.633 0 0 0 0-17.265zm0 13.186a4.554 4.554 0 1 1 .003-9.107 4.554 4.554 0 0 1-.003 9.107z" fill="#C4122F"/></g></g></svg>